# xmcd
#
# Track frame offsets:
#	150
#	15770
#	32510
#	48695
#	65140
#	86367
#	103070
#	121840
#	141660
#	161152
#	179777
#	196070
#	203072
#	217750
#	235857
#	256267
#	280535
#
# Disc length: 3801 seconds
#
# Revision: 13
# Processed by: cddbd v1.5.2PL0 Copyright (c) Steve Scherf et al.
# Submitted via: audiograbber 1.83.01
#
DISCID=ec0ed711
DTITLE=Brad Paisley - Mud On The Tires
DYEAR=2003
DGENRE=Country
TTITLE0=Brad Paisley - Mud On The Tires
TTITLE1=Brad Paisley - Celebrity
TTITLE2=Brad Paisley - Ain't Nothin' Like
TTITLE3=Brad Paisley - Little Moments
TTITLE4=Brad Paisley - That's Love
TTITLE5=Brad Paisley - Somebody Knows You Now
TTITLE6=Brad Paisley - Famous People
TTITLE7=Brad Paisley - Hold Me In Your Arms (And Let Me Fall)
TTITLE8=Brad Paisley feat. Alison Krauss - Whiskey Lullaby
TTITLE9=Brad Paisley - The Best Thing That I Had Goin'
TTITLE10=Brad Paisley - The Cigar Song
TTITLE11=Brad Paisley - Make A Mistake
TTITLE12=Brad Paisley - Make A Mistake With Me (Instrumental)
TTITLE13=Brad Paisley - Is It Raining At Your House
TTITLE14=Brad Paisley feat. Redd Volkaert - Spaghetti Western Swing (Instrument
TTITLE14=al)
TTITLE15=Brad Paisley - Farther Along
TTITLE16=Brad Paisley - Kung Pao Buckaroo Holiday
EXTD=YEAR: 2003\nMARO\n
EXTT0=
EXTT1=
EXTT2=
EXTT3=
EXTT4=
EXTT5=
EXTT6=
EXTT7=
EXTT8=
EXTT9=
EXTT10=
EXTT11=
EXTT12=
EXTT13=
EXTT14=
EXTT15=
EXTT16=
PLAYORDER=
